<?xml version="1.0" encoding="UTF-8" standalone="no"?> <svg width="64" height="64" viewBox="0 0 64 64" fill="none" xmlns="http://www.w3.org/2000/svg">
<path d="M54.4601 37.27L60.0001 36.89L59.8401 26.66L54.2101 26.93L51.8001 19.93L55.6001 15.81L48.3001 8.39L44.0001 12.52L37.2101 9.14L37.5401 4L26.8201 4.32L26.3401 9.84L20.0701 12.44L16.0701 8.91L8.55007 16.11L12.3001 20.11L9.52007 26.61L3.57007 26.71L3.89007 36.89L9.25007 37L12.0001 44L8.71007 48.14L15.7101 55.48L19.7101 51.75L26.8601 54.43L27.0001 60.21H36.8501L37.3201 54.86L44.0301 51.75L48.1001 55.54L55.2301 48.14L52.0001 44.07L54.4601 37.27ZM32.2301 44.93C29.6332 44.93 27.0946 44.1599 24.9354 42.7172C22.7762 41.2745 21.0933 39.2238 20.0995 36.8246C19.1058 34.4254 18.8457 31.7854 19.3524 29.2385C19.859 26.6915 21.1095 24.352 22.9458 22.5157C24.782 20.6794 27.1216 19.4289 29.6685 18.9223C32.2155 18.4157 34.8555 18.6757 37.2547 19.6695C39.6539 20.6632 41.7045 22.3461 43.1473 24.5054C44.59 26.6646 45.3601 29.2031 45.3601 31.8C45.3614 33.5246 45.0227 35.2326 44.3633 36.8262C43.7039 38.4198 42.7368 39.8678 41.5173 41.0872C40.2978 42.3067 38.8499 43.2738 37.2563 43.9332C35.6627 44.5926 33.9547 44.9313 32.2301 44.93V44.93Z" fill="#78B9EB"/>
<path d="M32 17.46C29.1242 17.46 26.3131 18.3127 23.922 19.9104C21.5309 21.5081 19.6673 23.7789 18.5668 26.4357C17.4663 29.0926 17.1783 32.0161 17.7393 34.8366C18.3004 37.6571 19.6852 40.2478 21.7186 42.2813C23.7521 44.3148 26.3429 45.6995 29.1634 46.2606C31.9838 46.8216 34.9073 46.5337 37.5642 45.4332C40.221 44.3327 42.4919 42.469 44.0895 40.078C45.6872 37.6869 46.54 34.8757 46.54 32C46.5373 28.1445 45.0046 24.4478 42.2784 21.7216C39.5522 18.9953 35.8554 17.4626 32 17.46V17.46ZM32 44C29.6266 44 27.3065 43.2962 25.3331 41.9776C23.3597 40.659 21.8217 38.7849 20.9134 36.5922C20.0052 34.3994 19.7675 31.9867 20.2305 29.6589C20.6936 27.3311 21.8365 25.1929 23.5147 23.5147C25.1929 21.8365 27.3311 20.6936 29.6589 20.2305C31.9867 19.7675 34.3995 20.0052 36.5922 20.9134C38.7849 21.8217 40.659 23.3597 41.9776 25.3331C43.2962 27.3065 44 29.6266 44 32C43.9868 35.1785 42.7183 38.2231 40.4707 40.4707C38.2231 42.7183 35.1785 43.9868 32 44V44Z" fill="#006DF0"/>
<path d="M60 25.45H55.34C54.8264 23.592 54.0841 21.805 53.13 20.13L56.43 16.83C56.6627 16.5942 56.7931 16.2763 56.7931 15.945C56.7931 15.6137 56.6627 15.2958 56.43 15.06L48.94 7.58C48.7042 7.34733 48.3863 7.21687 48.055 7.21687C47.7237 7.21687 47.4058 7.34733 47.17 7.58L43.87 10.88C42.195 9.92592 40.408 9.18357 38.55 8.67V4C38.55 3.66848 38.4183 3.35054 38.1839 3.11612C37.9495 2.8817 37.6315 2.75 37.3 2.75H26.7C26.3685 2.75 26.0505 2.8817 25.8161 3.11612C25.5817 3.35054 25.45 3.66848 25.45 4V8.66C23.592 9.17357 21.805 9.91592 20.13 10.87L16.83 7.57C16.5942 7.33733 16.2763 7.20687 15.945 7.20687C15.6137 7.20687 15.2958 7.33733 15.06 7.57L7.58 15.06C7.34733 15.2958 7.21687 15.6137 7.21687 15.945C7.21687 16.2763 7.34733 16.5942 7.58 16.83L10.88 20.13C9.92592 21.805 9.18357 23.592 8.67 25.45H4C3.66848 25.45 3.35054 25.5817 3.11612 25.8161C2.8817 26.0505 2.75 26.3685 2.75 26.7V37.3C2.75 37.6315 2.8817 37.9495 3.11612 38.1839C3.35054 38.4183 3.66848 38.55 4 38.55H8.66C9.17357 40.408 9.91592 42.195 10.87 43.87L7.57 47.17C7.33733 47.4058 7.20687 47.7237 7.20687 48.055C7.20687 48.3863 7.33733 48.7042 7.57 48.94L15.05 56.42C15.2858 56.6527 15.6037 56.7831 15.935 56.7831C16.2663 56.7831 16.5842 56.6527 16.82 56.42L20.12 53.12C21.795 54.0741 23.582 54.8164 25.44 55.33V60C25.44 60.3315 25.5717 60.6495 25.8061 60.8839C26.0405 61.1183 26.3585 61.25 26.69 61.25H37.3C37.6315 61.25 37.9495 61.1183 38.1839 60.8839C38.4183 60.6495 38.55 60.3315 38.55 60V55.34C40.408 54.8264 42.195 54.0841 43.87 53.13L47.17 56.43C47.4058 56.6627 47.7237 56.7931 48.055 56.7931C48.3863 56.7931 48.7042 56.6627 48.94 56.43L56.42 48.95C56.6527 48.7142 56.7831 48.3963 56.7831 48.065C56.7831 47.7337 56.6527 47.4158 56.42 47.18L53.12 43.88C54.0741 42.205 54.8164 40.418 55.33 38.56H60C60.3315 38.56 60.6495 38.4283 60.8839 38.1939C61.1183 37.9595 61.25 37.6415 61.25 37.31V26.7C61.25 26.3685 61.1183 26.0505 60.8839 25.8161C60.6495 25.5817 60.3315 25.45 60 25.45ZM58.75 36.05H54.37C54.0827 36.0511 53.8045 36.1511 53.5823 36.3333C53.3601 36.5154 53.2075 36.7685 53.15 37.05C52.626 39.3118 51.7305 41.4711 50.5 43.44C50.349 43.682 50.2846 43.9681 50.3173 44.2515C50.35 44.5349 50.4778 44.7987 50.68 45L53.77 48.11L48.06 53.82L45 50.68C44.8001 50.4826 44.54 50.3577 44.261 50.3251C43.9819 50.2925 43.7 50.354 43.46 50.5C41.4696 51.7376 39.2861 52.6334 37 53.15C36.7185 53.2075 36.4654 53.3601 36.2833 53.5823C36.1011 53.8045 36.0011 54.0827 36 54.37V58.75H28V54.37C27.9989 54.0827 27.8989 53.8045 27.7167 53.5823C27.5346 53.3601 27.2815 53.2075 27 53.15C24.7382 52.626 22.5789 51.7305 20.61 50.5C20.37 50.354 20.0881 50.2925 19.809 50.3251C19.53 50.3577 19.2699 50.4826 19.07 50.68L15.96 53.77L10.25 48.06L13.32 45C13.5174 44.8001 13.6423 44.54 13.6749 44.261C13.7075 43.9819 13.646 43.7 13.5 43.46C12.2624 41.4696 11.3666 39.2861 10.85 37C10.7925 36.7185 10.6399 36.4654 10.4177 36.2833C10.1955 36.1011 9.9173 36.0011 9.63 36H5.25V28H9.63C9.9173 27.9989 10.1955 27.8989 10.4177 27.7167C10.6399 27.5346 10.7925 27.2815 10.85 27C11.374 24.7382 12.2695 22.5789 13.5 20.61C13.646 20.37 13.7075 20.0881 13.6749 19.809C13.6423 19.53 13.5174 19.2699 13.32 19.07L10.23 15.96L15.94 10.25L19.05 13.34C19.248 13.5406 19.5085 13.6677 19.7884 13.7004C20.0683 13.7331 20.3511 13.6695 20.59 13.52C22.5637 12.2805 24.73 11.3781 27 10.85C27.2815 10.7925 27.5346 10.6399 27.7167 10.4177C27.8989 10.1955 27.9989 9.9173 28 9.63V5.25H36.1V9.63C36.1011 9.9173 36.2011 10.1955 36.3833 10.4177C36.5654 10.6399 36.8185 10.7925 37.1 10.85C39.3618 11.374 41.5211 12.2695 43.49 13.5C43.726 13.6419 44.0024 13.7012 44.2758 13.6686C44.5492 13.6361 44.804 13.5134 45 13.32L48.11 10.23L53.82 15.94L50.73 19.05C50.5326 19.2499 50.4077 19.51 50.3751 19.789C50.3425 20.0681 50.404 20.35 50.55 20.59C51.765 22.5683 52.6436 24.7343 53.15 27C53.2075 27.2815 53.3601 27.5346 53.5823 27.7167C53.8045 27.8989 54.0827 27.9989 54.37 28H58.75V36.05Z" fill="#006DF0"/>
</svg>
