<?xml version="1.0" encoding="iso-8859-1"?>
<!-- Generator: Adobe Illustrator 21.0.0, SVG Export Plug-In . SVG Version: 6.00 Build 0)  -->
<svg version="1.1" id="Capa_1" xmlns="http://www.w3.org/2000/svg" xmlns:xlink="http://www.w3.org/1999/xlink" x="0px" y="0px"
	 viewBox="0 0 512 512" style="enable-background:new 0 0 512 512;" xml:space="preserve">
<g id="XMLID_438_">
	<g id="XMLID_439_">
		<path id="XMLID_440_" style="fill:#D3D8DF;" d="M504.5,281.919v-51.838c0-5.288-4.012-9.713-9.274-10.23l-57.843-5.686
			c-4.197-0.413-7.665-3.381-8.821-7.437c-3.809-13.371-9.125-26.107-15.761-38.008c-2.041-3.66-1.58-8.207,1.079-11.445
			l36.839-44.871c3.355-4.087,3.063-10.053-0.676-13.792l-36.655-36.655c-3.739-3.739-9.705-4.032-13.792-0.676l-44.871,36.84
			c-3.239,2.659-7.786,3.12-11.445,1.079c-11.9-6.636-24.636-11.952-38.008-15.761c-4.056-1.155-7.025-4.624-7.437-8.821
			l-5.686-57.843c-0.517-5.262-4.943-9.274-10.23-9.274h-51.838c-5.288,0-9.713,4.012-10.23,9.274l-5.686,57.843
			c-0.413,4.197-3.381,7.665-7.437,8.821c-13.371,3.809-26.107,9.125-38.008,15.761c-3.66,2.041-8.207,1.58-11.445-1.079
			l-44.871-36.84c-4.087-3.355-10.053-3.063-13.792,0.676L61.956,98.612c-3.739,3.739-4.032,9.705-0.676,13.792l36.84,44.871
			c2.659,3.239,3.12,7.786,1.079,11.445c-6.636,11.9-11.952,24.636-15.761,38.008c-1.155,4.056-4.624,7.025-8.821,7.437
			l-57.843,5.686c-5.262,0.517-9.274,4.943-9.274,10.23v51.838c0,5.288,4.012,9.713,9.274,10.23l57.843,5.686
			c4.197,0.413,7.665,3.381,8.821,7.437c3.809,13.371,9.125,26.107,15.761,38.008c2.041,3.66,1.58,8.207-1.079,11.445l-36.84,44.871
			c-3.355,4.087-3.063,10.053,0.676,13.792l36.655,36.655c3.739,3.739,9.705,4.032,13.792,0.676l44.871-36.839
			c3.239-2.659,7.786-3.12,11.445-1.079c11.9,6.636,24.636,11.952,38.008,15.761c4.056,1.155,7.025,4.624,7.437,8.821l5.686,57.843
			c0.517,5.262,4.943,9.274,10.23,9.274h51.838c5.288,0,9.713-4.012,10.23-9.274l5.686-57.843c0.413-4.197,3.381-7.665,7.437-8.821
			c13.371-3.809,26.107-9.125,38.008-15.761c3.66-2.041,8.207-1.58,11.445,1.079l44.871,36.839
			c4.087,3.355,10.053,3.063,13.792-0.676l36.655-36.655c3.739-3.739,4.032-9.705,0.676-13.792l-36.839-44.871
			c-2.659-3.239-3.12-7.786-1.079-11.445c6.636-11.9,11.952-24.636,15.761-38.008c1.155-4.056,4.624-7.025,8.821-7.437l57.843-5.686
			C500.488,291.632,504.5,287.207,504.5,281.919z"/>
		<path id="XMLID_441_" style="fill:#C2C6CC;" d="M256,409c-84.364,0-153-68.636-153-153s68.636-153,153-153s153,68.636,153,153
			S340.364,409,256,409z"/>
		<circle style="fill:#74E2CD;" cx="256" cy="256" r="141"/>
		<path id="XMLID_442_" style="fill:#4FCEB7;" d="M256,375.204c-65.729,0-119.204-53.475-119.204-119.204
			S190.271,136.796,256,136.796S375.204,190.271,375.204,256S321.729,375.204,256,375.204z"/>
		<circle style="fill:#EBEEF2;" cx="256" cy="256" r="107.204"/>
	</g>
	<g id="XMLID_443_">
		<path id="XMLID_444_" d="M119.313,435.344l-11.668,9.579c-1.111,0.911-2.715,0.833-3.729-0.184l-36.654-36.654
			c-1.017-1.016-1.096-2.619-0.184-3.729l36.84-44.871c4.668-5.687,5.388-13.48,1.832-19.857
			c-6.412-11.498-11.492-23.748-15.099-36.409c-2.019-7.088-8.024-12.131-15.3-12.847l-57.842-5.686
			c-1.431-0.141-2.509-1.33-2.509-2.767v-51.838c0-1.437,1.078-2.626,2.508-2.767l57.844-5.686
			c7.274-0.716,13.28-5.759,15.299-12.847c3.606-12.661,8.687-24.911,15.1-36.41c3.554-6.375,2.835-14.168-1.833-19.856
			l-36.84-44.871c-0.912-1.11-0.833-2.714,0.184-3.729l36.653-36.655c1.017-1.014,2.62-1.093,3.73-0.183l8.774,7.204
			c3.199,2.628,7.926,2.165,10.556-1.038c2.628-3.201,2.164-7.927-1.038-10.556l-8.774-7.204c-7.1-5.83-17.354-5.329-23.854,1.17
			L56.653,93.308c-6.497,6.498-7,16.753-1.17,23.854l36.839,44.87c0.719,0.876,0.85,2.096,0.327,3.034
			c-6.976,12.508-12.502,25.834-16.425,39.606c-0.32,1.124-1.239,1.92-2.341,2.028l-57.844,5.686C6.896,213.286,0,220.893,0,230.081
			v51.838c0,9.188,6.896,16.795,16.041,17.694l57.842,5.686c1.103,0.108,2.021,0.904,2.342,2.028
			c3.923,13.772,9.449,27.099,16.424,39.605c0.524,0.939,0.394,2.159-0.325,3.034l-36.84,44.871
			c-5.83,7.102-5.327,17.356,1.17,23.854l36.654,36.653c3.469,3.47,8.009,5.23,12.568,5.23c3.98,0,7.977-1.342,11.286-4.06
			l11.668-9.579c3.202-2.628,3.666-7.354,1.038-10.556C127.239,433.18,122.512,432.715,119.313,435.344z"/>
		<path id="XMLID_445_" d="M495.96,212.387l-57.843-5.686c-1.103-0.108-2.021-0.904-2.342-2.028
			c-3.923-13.772-9.449-27.099-16.424-39.605c-0.523-0.939-0.393-2.158,0.326-3.034l36.839-44.871
			c5.831-7.103,5.328-17.357-1.17-23.854l-36.654-36.654c-6.497-6.495-16.751-6.999-23.854-1.17l-44.87,36.839
			c-0.877,0.72-2.099,0.848-3.034,0.327c-12.508-6.976-25.834-12.502-39.606-16.425c-1.124-0.32-1.92-1.239-2.028-2.341
			l-5.686-57.842C298.716,6.896,291.108,0,281.919,0h-51.838c-9.188,0-16.795,6.896-17.694,16.041l-5.686,57.842
			c-0.108,1.103-0.904,2.021-2.028,2.342c-13.772,3.923-27.099,9.449-39.605,16.424c-0.94,0.523-2.159,0.394-3.034-0.325
			l-11.012-9.041c-3.198-2.628-7.927-2.165-10.556,1.038c-2.628,3.201-2.164,7.927,1.038,10.556l11.013,9.042
			c5.686,4.665,13.478,5.387,19.856,1.831c11.498-6.412,23.748-11.492,36.409-15.099c7.088-2.019,12.131-8.024,12.847-15.3
			l5.686-57.842c0.141-1.431,1.33-2.509,2.767-2.509h51.838c1.437,0,2.626,1.078,2.767,2.508l5.686,57.844
			c0.716,7.274,5.759,13.28,12.847,15.299c12.661,3.606,24.911,8.687,36.41,15.1c6.373,3.553,14.167,2.834,19.856-1.833
			l44.871-36.84c1.109-0.911,2.714-0.834,3.729,0.184l36.655,36.654c1.016,1.016,1.095,2.619,0.183,3.729l-36.839,44.871
			c-4.668,5.687-5.389,13.48-1.833,19.857c6.412,11.498,11.492,23.748,15.099,36.409c2.019,7.088,8.024,12.131,15.3,12.847
			l57.843,5.686c1.43,0.141,2.508,1.33,2.508,2.767v51.838c0,1.437-1.078,2.626-2.507,2.767l-57.845,5.686
			c-7.274,0.716-13.28,5.759-15.299,12.847c-3.606,12.661-8.687,24.911-15.1,36.41c-3.555,6.376-2.834,14.17,1.834,19.856
			l36.839,44.871c0.912,1.11,0.833,2.714-0.184,3.729l-36.654,36.655c-1.015,1.016-2.618,1.095-3.729,0.183l-44.871-36.839
			c-5.688-4.67-13.483-5.388-19.856-1.833c-11.5,6.413-23.75,11.492-36.41,15.099c-7.088,2.019-12.131,8.024-12.847,15.3
			l-5.686,57.845c-0.141,1.429-1.33,2.506-2.767,2.506h-51.838c-1.437,0-2.626-1.078-2.767-2.507l-5.686-57.845
			c-0.716-7.274-5.759-13.28-12.847-15.299c-12.66-3.606-24.91-8.686-36.409-15.098c-6.377-3.558-14.17-2.836-19.857,1.832
			l-8.12,6.666c-3.201,2.628-3.666,7.354-1.038,10.556c2.628,3.203,7.354,3.665,10.556,1.038l8.12-6.666
			c0.876-0.72,2.097-0.851,3.034-0.325c12.509,6.975,25.834,12.5,39.605,16.423c1.124,0.32,1.92,1.239,2.028,2.341l5.686,57.845
			c0.899,9.144,8.506,16.039,17.694,16.039h51.838c9.189,0,16.797-6.896,17.694-16.04l5.686-57.843
			c0.108-1.103,0.904-2.021,2.028-2.342c13.771-3.923,27.097-9.448,39.606-16.424c0.938-0.524,2.157-0.393,3.033,0.326
			l44.871,36.839c7.102,5.83,17.357,5.326,23.854-1.17l36.653-36.654c6.499-6.497,7.002-16.752,1.171-23.854l-36.839-44.871
			c-0.719-0.876-0.85-2.095-0.327-3.033c6.976-12.508,12.502-25.834,16.425-39.606c0.32-1.124,1.239-1.92,2.341-2.028l57.845-5.686
			c9.144-0.899,16.039-8.506,16.039-17.694v-51.838C512,220.893,505.104,213.286,495.96,212.387z"/>
		<path id="XMLID_446_" d="M107.5,256c0,81.883,66.617,148.5,148.5,148.5c34.42,0,67.972-12.047,94.474-33.922
			c3.194-2.637,3.646-7.364,1.01-10.559c-2.638-3.195-7.365-3.645-10.559-1.01C317.104,378.672,286.943,389.5,256,389.5
			c-73.612,0-133.5-59.888-133.5-133.5S182.388,122.5,256,122.5S389.5,182.388,389.5,256c0,29.418-9.388,57.321-27.147,80.691
			c-2.506,3.298-1.864,8.003,1.434,10.51c3.298,2.505,8.003,1.863,10.51-1.434C394.056,319.765,404.5,288.724,404.5,256
			c0-81.883-66.617-148.5-148.5-148.5S107.5,174.117,107.5,256z"/>
		<path id="XMLID_447_" d="M256,141.296c-63.248,0-114.704,51.456-114.704,114.704S192.752,370.704,256,370.704
			S370.704,319.248,370.704,256S319.248,141.296,256,141.296z M256,355.704c-54.977,0-99.704-44.728-99.704-99.704
			s44.728-99.704,99.704-99.704s99.704,44.728,99.704,99.704S310.977,355.704,256,355.704z"/>
		<path id="XMLID_450_" d="M301.986,291.805h-35.531v-0.167c0-4.143-3.357-7.5-7.5-7.5s-7.5,3.357-7.5,7.5v0.167h-41.441
			c-4.143,0-7.5,3.357-7.5,7.5s3.357,7.5,7.5,7.5h41.441v0.166c0,4.143,3.357,7.5,7.5,7.5s7.5-3.357,7.5-7.5v-0.166h35.531
			c4.143,0,7.5-3.357,7.5-7.5S306.129,291.805,301.986,291.805z"/>
		<path id="XMLID_451_" d="M301.986,248.5h-6.531v-0.167c0-4.143-3.357-7.5-7.5-7.5s-7.5,3.357-7.5,7.5v0.167h-70.441
			c-4.143,0-7.5,3.357-7.5,7.5s3.357,7.5,7.5,7.5h70.441v0.167c0,4.143,3.357,7.5,7.5,7.5s7.5-3.357,7.5-7.5V263.5h6.531
			c4.143,0,7.5-3.357,7.5-7.5S306.129,248.5,301.986,248.5z"/>
		<path id="XMLID_452_" d="M301.986,205.195h-60.153v-0.166c0-4.143-3.357-7.5-7.5-7.5s-7.5,3.357-7.5,7.5v0.166h-16.819
			c-4.143,0-7.5,3.357-7.5,7.5s3.357,7.5,7.5,7.5h16.819v0.167c0,4.143,3.357,7.5,7.5,7.5s7.5-3.357,7.5-7.5v-0.167h60.153
			c4.143,0,7.5-3.357,7.5-7.5S306.129,205.195,301.986,205.195z"/>
		<path id="XMLID_453_" d="M255.987,77.435c0.023,0,0.046,0,0.068,0c4.111,0,7.462-3.314,7.499-7.433
			c0.037-4.143-3.291-7.53-7.433-7.567l-0.109-0.001c-0.023,0-0.046,0-0.068,0c-4.111,0-7.462,3.314-7.499,7.433
			c-0.037,4.143,3.291,7.53,7.433,7.567L255.987,77.435z"/>
		<path id="XMLID_454_" d="M256.013,434.565c-0.023,0-0.046,0-0.068,0c-4.111,0-7.462,3.314-7.499,7.433
			c-0.037,4.143,3.291,7.53,7.433,7.567l0.109,0.001c0.023,0,0.046,0,0.068,0c4.111,0,7.462-3.314,7.499-7.433
			c0.037-4.143-3.291-7.53-7.433-7.567L256.013,434.565z"/>
		<path id="XMLID_455_" d="M441.998,263.555c0.023,0,0.046,0,0.068,0c4.111,0,7.462-3.314,7.499-7.433l0.001-0.109
			c0.037-4.143-3.291-7.53-7.433-7.567c-0.023,0-0.046,0-0.068,0c-4.111,0-7.462,3.314-7.499,7.433l-0.001,0.109
			C434.528,260.13,437.856,263.518,441.998,263.555z"/>
		<path id="XMLID_456_" d="M70.002,248.445c-0.023,0-0.046,0-0.068,0c-4.111,0-7.462,3.314-7.499,7.433l-0.001,0.109
			c-0.037,4.143,3.291,7.53,7.433,7.567c0.023,0,0.046,0,0.068,0c4.111,0,7.462-3.314,7.499-7.433l0.001-0.109
			C77.472,251.87,74.144,248.482,70.002,248.445z"/>
	</g>
</g>
<g>
</g>
<g>
</g>
<g>
</g>
<g>
</g>
<g>
</g>
<g>
</g>
<g>
</g>
<g>
</g>
<g>
</g>
<g>
</g>
<g>
</g>
<g>
</g>
<g>
</g>
<g>
</g>
<g>
</g>
</svg>
