<?xml version="1.0" encoding="utf-8"?>
<!-- Generator: Adobe Illustrator 24.3.0, SVG Export Plug-In . SVG Version: 6.00 Build 0)  -->
<svg version="1.1" id="Layer_1" xmlns="http://www.w3.org/2000/svg" xmlns:xlink="http://www.w3.org/1999/xlink" x="0px" y="0px"
	 viewBox="0 0 64 64" enable-background="new 0 0 64 64" xml:space="preserve">
<rect x="14" y="57" fill="#FAEBE1" width="34" height="5"/>
<path fill="#E0993D" d="M35,54c0,2.2,1.8,4,4,4h5c3.3,0,6-2.7,6-6v0c0-3.3-2.7-6-6-6h-3c2.2,0,4-1.8,4-4l-0.1,0
	c2.3-0.2,4.1-2.1,4.1-4.5V35l-6.1-10.9L43,24v0l0-4.5c0-8.6-6.6-16-15.2-16.4C18.6,2.6,11,9.9,11,19v18l-0.8,0
	c-1.6,0-3.1,1.2-3.2,2.8C6.9,41.6,8.3,43,10,43l-0.8,0c-3.1,0-5.8,2.2-6.2,5.3c-0.3,2.9,1.4,5.5,4,6.4V57c0,2.2,1.8,4,4,4h5
	c3.3,0,6-2.7,6-6v-1c0-1.2-0.4-2.2-1.1-3.1C21,50.6,21,50.3,21,50v-2h15c-0.6,0.8-1,1.9-1,3V54z"/>
<path fill="#FAEBE1" d="M15,29v0.9c0,3.8,1.8,7.4,4.9,9.7l3.1,2.3c1.8,1.3,4.2,1.3,6,0.1l6-4l0-18L33,9c0,0-4,6-8,9s-10,4-10,4V29z"
	/>
<polygon fill="#FAEBE1" points="21,62 36,62 36,48 31,48 31,39 21,39 "/>
<path fill="#E0993D" d="M38,58h-3c-3.3,0-6-2.7-6-6v0c0-3.3,2.7-6,6-6h3c3.3,0,6,2.7,6,6v0C44,55.3,41.3,58,38,58z"/>
<path fill="#495052" d="M29,24c-1.7,0-3,1.3-3,3s1.3,3,3,3h32v-6H29z"/>
<path fill="#E0D3CA" d="M29,42c-1.8,1.2-4.2,1.2-6-0.1l-2-1.5v1.1l2,1.5c1.8,1.3,4.2,1.3,6,0.1l2-1.3v-1.1L29,42z"/>
<path fill="#626B6E" d="M62,36h-6c-0.4,0-0.7-0.2-0.9-0.5l-3-5C52,30.4,52,30.2,52,30v-6h2v5.7l2.6,4.3H62V36z"/>
<path fill="#495052" d="M49,15h-2c0-0.3-0.1-0.4-0.6-0.8C45.8,13.7,45,13,45,11.7c0-1.3,0.8-2,1.4-2.4C46.9,8.9,47,8.8,47,8.5
	c0-0.3-0.1-0.4-0.6-0.8C45.8,7.2,45,6.5,45,5.2s0.8-2,1.4-2.4C46.9,2.4,47,2.3,47,2h2c0,1.3-0.8,2-1.4,2.4C47.1,4.8,47,5,47,5.2
	s0.1,0.4,0.6,0.8C48.2,6.5,49,7.2,49,8.5c0,1.3-0.8,2-1.4,2.4c-0.5,0.4-0.6,0.6-0.6,0.8s0.1,0.4,0.6,0.9C48.2,13,49,13.7,49,15z"/>
<path fill="#495052" d="M54,15h-2c0-0.3-0.1-0.4-0.6-0.8C50.8,13.7,50,13,50,11.7c0-1.3,0.8-2,1.4-2.4C51.9,8.9,52,8.8,52,8.5
	c0-0.3-0.1-0.4-0.6-0.8C50.8,7.2,50,6.5,50,5.2s0.8-2,1.4-2.4C51.9,2.4,52,2.3,52,2h2c0,1.3-0.8,2-1.4,2.4C52.1,4.8,52,5,52,5.2
	s0.1,0.4,0.6,0.8C53.2,6.5,54,7.2,54,8.5c0,1.3-0.8,2-1.4,2.4c-0.5,0.4-0.6,0.6-0.6,0.8s0.1,0.4,0.6,0.9C53.2,13,54,13.7,54,15z"/>
<path fill="#495052" d="M15,56H9c-3.9,0-7-3.1-7-7s3.1-7,7-7h6v2H9c-2.8,0-5,2.2-5,5s2.2,5,5,5h6V56z"/>
<path fill="#BA7F33" d="M16,48h-3v2h3c2.8,0,5,2.2,5,5s-2.2,5-5,5h-5c-1.7,0-3-1.3-3-3H6c0,2.8,2.2,5,5,5h5c3.9,0,7-3.1,7-7
	S19.9,48,16,48z"/>
<path fill="#BA7F33" d="M44.9,45.1c0.5-0.6,0.9-1.4,1-2.3c2.3-0.6,4.1-2.8,4.1-5.3V35h-2v2.5c0,1.9-1.6,3.5-3.5,3.5S41,39.4,41,37.5
	V19h-2v18.5c0,2.8,2.1,5.1,4.8,5.5c-0.4,1.2-1.5,2-2.8,2h-2c-1.7,0-3-1.3-3-3V22.9c0-2.7-0.3-5.4-0.8-8L34,8.8
	c-0.1-0.4-0.4-0.7-0.8-0.8c-0.4-0.1-0.8,0.1-1,0.5C28.5,15.2,22,19.9,14.5,21.3L12,21.8V19c0-4.1,1.7-8,4.6-10.9
	c3-2.9,6.9-4.3,11.1-4.1c8,0.4,14.3,7.2,14.3,15.4V24h2v-4.5c0-9.3-7.1-17-16.2-17.4c-4.7-0.2-9.2,1.4-12.6,4.7
	C11.9,9.9,10,14.3,10,19v17c-2.2,0-4,1.8-4,4c0,0.9,0.3,1.7,0.8,2.4C4,43.3,2,45.9,2,49c0,3.9,3.1,7,7,7h6v-2H9c-2.8,0-5-2.2-5-5
	s2.2-5,5-5h1h1h4v-2h-4h-1c-1.1,0-2-0.9-2-2s0.9-2,2-2h1c0.6,0,1-0.4,1-1V23.8l2.9-0.5c7.3-1.4,13.6-5.5,17.7-11.6l0.7,3.6
	c0.5,2.5,0.8,5.1,0.8,7.6V42c0,2.8,2.2,5,5,5h2h3c2.8,0,5,2.2,5,5s-2.2,5-5,5h-5c-1.7,0-3-1.3-3-3h-2c0,2.8,2.2,5,5,5h5
	c3.9,0,7-3.1,7-7C51,48.5,48.3,45.5,44.9,45.1z"/>
</svg>
