<?xml version="1.0" encoding="UTF-8" standalone="no"?> <svg width="64" height="64" viewBox="0 0 64 64" fill="none" xmlns="http://www.w3.org/2000/svg">
<path d="M42 41H36C35.7348 41 35.4804 41.1054 35.2929 41.2929C35.1054 41.4804 35 41.7348 35 42V43C35 43.7957 34.6839 44.5587 34.1213 45.1213C33.5587 45.6839 32.7957 46 32 46C31.2044 46 30.4413 45.6839 29.8787 45.1213C29.3161 44.5587 29 43.7957 29 43V42C29 41.7348 28.8946 41.4804 28.7071 41.2929C28.5196 41.1054 28.2652 41 28 41H22C19.5046 40.999 17.0334 41.4897 14.7278 42.4442C12.4221 43.3986 10.3272 44.7981 8.56263 46.5626C6.79811 48.3272 5.39862 50.4221 4.44415 52.7278C3.48968 55.0334 2.99895 57.5046 3 60C3 60.2652 3.10536 60.5196 3.29289 60.7071C3.48043 60.8946 3.73479 61 4 61H60C60.2652 61 60.5196 60.8946 60.7071 60.7071C60.8946 60.5196 61 60.2652 61 60C60.9944 54.9626 58.9909 50.1331 55.4289 46.5711C51.8669 43.0091 47.0374 41.0056 42 41V41Z" fill="#CAD3C8"/>
<path d="M36.061 45.352C36.0239 45.1669 35.9351 44.996 35.8049 44.8592C35.6747 44.7224 35.5085 44.6253 35.3254 44.5791C35.1423 44.5328 34.9499 44.5394 34.7704 44.5979C34.5909 44.6565 34.4316 44.7647 34.311 44.91C34.03 45.2509 33.6771 45.5253 33.2776 45.7138C32.878 45.9022 32.4418 45.9999 32 45.9999C31.5583 45.9999 31.122 45.9022 30.7224 45.7138C30.3229 45.5253 29.97 45.2509 29.689 44.91C29.5684 44.765 29.4091 44.6571 29.2298 44.5987C29.0504 44.5403 28.8582 44.5339 28.6753 44.5801C28.4924 44.6263 28.3263 44.7233 28.1962 44.8599C28.0661 44.9965 27.9773 45.1671 27.94 45.352L25.02 59.8C24.9903 59.9453 24.9934 60.0954 25.0289 60.2394C25.0644 60.3834 25.1315 60.5177 25.2253 60.6325C25.3191 60.7474 25.4373 60.84 25.5713 60.9035C25.7052 60.9671 25.8517 61 26 61H38C38.1483 61 38.2948 60.9671 38.4288 60.9035C38.5628 60.84 38.6809 60.7474 38.7747 60.6325C38.8685 60.5177 38.9356 60.3834 38.9711 60.2394C39.0066 60.0954 39.0097 59.9453 38.98 59.8L36.061 45.352Z" fill="#A73845"/>
<path d="M21 52H13C12.7348 52 12.4804 51.8946 12.2929 51.7071C12.1054 51.5196 12 51.2652 12 51C12 50.7348 12.1054 50.4804 12.2929 50.2929C12.4804 50.1054 12.7348 50 13 50H21C21.2652 50 21.5196 50.1054 21.7071 50.2929C21.8946 50.4804 22 50.7348 22 51C22 51.2652 21.8946 51.5196 21.7071 51.7071C21.5196 51.8946 21.2652 52 21 52Z" fill="#4B4B4B"/>
<path d="M36.546 34.322C36.4064 34.2311 36.2462 34.1766 36.0801 34.1633C35.9141 34.15 35.7473 34.1784 35.595 34.246C34.461 34.7407 33.2372 34.996 32 34.996C30.7628 34.996 29.539 34.7407 28.405 34.246C28.2528 34.1786 28.0861 34.1502 27.9202 34.1635C27.7543 34.1768 27.5942 34.2313 27.4547 34.3221C27.3151 34.4129 27.2005 34.537 27.1211 34.6834C27.0417 34.8297 27.0001 34.9935 27 35.16V43C27 44.3261 27.5268 45.5979 28.4645 46.5355C29.4021 47.4732 30.6739 48 32 48C33.3261 48 34.5979 47.4732 35.5355 46.5355C36.4732 45.5979 37 44.3261 37 43V35.16C37 34.9936 36.9585 34.8298 36.8793 34.6834C36.8 34.5371 36.6854 34.4129 36.546 34.322Z" fill="#FFD4CF"/>
<path d="M42 17H39.5C39.3028 17.0008 39.1074 16.9625 38.925 16.8874C38.7427 16.8123 38.577 16.7019 38.4376 16.5624C38.2981 16.423 38.1877 16.2573 38.1126 16.075C38.0375 15.8926 37.9992 15.6972 38 15.5C38 14.5717 37.6312 13.6815 36.9749 13.0251C36.3185 12.3687 35.4283 12 34.5 12H29.5C29.04 11.9983 28.5842 12.0878 28.159 12.2634C27.7339 12.439 27.3477 12.6972 27.023 13.023C26.3691 13.6817 26.0015 14.5718 26 15.5C26 15.8978 25.842 16.2793 25.5607 16.5607C25.2794 16.842 24.8978 17 24.5 17H22C21.7348 17 21.4804 17.1053 21.2929 17.2929C21.1054 17.4804 21 17.7348 21 18V26C21.0002 28.1393 21.6248 30.2321 22.7972 32.0216C23.9696 33.811 25.6388 35.2194 27.6 36.074C28.9869 36.6831 30.4852 36.9976 32 36.9976C33.5148 36.9976 35.0131 36.6831 36.4 36.074C38.3609 35.219 40.0298 33.8105 41.2021 32.0211C42.3745 30.2317 42.9993 28.1392 43 26V18C43 17.7348 42.8946 17.4804 42.7071 17.2929C42.5196 17.1053 42.2652 17 42 17Z" fill="#FFD4CF"/>
<path d="M39.777 6.22301C38.2386 4.6851 36.2788 3.63783 34.1453 3.21359C32.0119 2.78935 29.8005 3.00718 27.7908 3.83955C25.7811 4.67192 24.0633 6.08145 22.8546 7.88996C21.6459 9.69847 21.0005 11.8248 21 14V18C21 18.2652 21.1054 18.5196 21.2929 18.7071C21.4804 18.8946 21.7348 19 22 19H24.5C25.4283 19 26.3185 18.6313 26.9749 17.9749C27.6313 17.3185 28 16.4283 28 15.5C27.9992 15.3028 28.0375 15.1074 28.1126 14.925C28.1877 14.7427 28.2981 14.577 28.4376 14.4376C28.577 14.2981 28.7427 14.1877 28.925 14.1126C29.1074 14.0375 29.3028 13.9992 29.5 14H34.5C34.8978 14 35.2794 14.158 35.5607 14.4393C35.842 14.7206 36 15.1022 36 15.5C35.9991 15.9599 36.089 16.4154 36.2645 16.8405C36.4401 17.2655 36.6979 17.6517 37.0231 17.9769C37.3483 18.3021 37.7345 18.5599 38.1595 18.7355C38.5846 18.911 39.0401 19.0009 39.5 19H42C42.2652 19 42.5196 18.8946 42.7071 18.7071C42.8946 18.5196 43 18.2652 43 18V14C43.0036 12.555 42.7206 11.1236 42.1674 9.78873C41.6141 8.45382 40.8017 7.24187 39.777 6.22301V6.22301Z" fill="#FDBF67"/>
<path d="M42 41H37V35.788C38.8051 34.8681 40.3209 33.4671 41.3797 31.7398C42.4385 30.0124 42.9993 28.026 43 26V14C43 11.0826 41.8411 8.28473 39.7782 6.22183C37.7153 4.15893 34.9174 3 32 3C29.0826 3 26.2847 4.15893 24.2218 6.22183C22.1589 8.28473 21 11.0826 21 14V26C21.0004 28.0261 21.561 30.0126 22.6199 31.74C23.6787 33.4674 25.1946 34.8684 27 35.788V41H22C19.5046 40.9989 17.0334 41.4897 14.7278 42.4441C12.4221 43.3986 10.3272 44.7981 8.56263 46.5626C6.79811 48.3271 5.39862 50.4221 4.44415 52.7278C3.48968 55.0334 2.99895 57.5046 3 60C3 60.2652 3.10536 60.5196 3.29289 60.7071C3.48043 60.8946 3.73479 61 4 61H60C60.2652 61 60.5196 60.8946 60.7071 60.7071C60.8946 60.5196 61 60.2652 61 60C60.9944 54.9626 58.9909 50.1331 55.4289 46.5711C51.8669 43.0091 47.0374 41.0056 42 41V41ZM32 46C31.5583 45.9996 31.1221 45.9018 30.7227 45.7133C30.3232 45.5249 29.9702 45.2506 29.689 44.91V44.91C29.2453 44.3722 29.0018 43.6972 29 43V36.584C29.08 36.607 29.164 36.614 29.244 36.635C29.5773 36.7223 29.9157 36.7933 30.259 36.848C30.379 36.867 30.498 36.889 30.619 36.904C31.5359 37.0319 32.4661 37.0319 33.383 36.904C33.502 36.889 33.619 36.868 33.738 36.849C34.084 36.7937 34.4257 36.722 34.763 36.634C34.841 36.613 34.923 36.606 35 36.584V43C35 43.7956 34.6839 44.5587 34.1213 45.1213C33.5587 45.6839 32.7957 46 32 46ZM23 14C23 11.6131 23.9482 9.32387 25.636 7.63604C27.3239 5.94821 29.6131 5 32 5C34.387 5 36.6761 5.94821 38.364 7.63604C40.0518 9.32387 41 11.6131 41 14V17H39.5C39.3028 17.0008 39.1074 16.9625 38.925 16.8874C38.7427 16.8123 38.577 16.7019 38.4376 16.5624C38.2981 16.423 38.1877 16.2573 38.1126 16.075C38.0375 15.8926 37.9992 15.6972 38 15.5C38 14.5717 37.6312 13.6815 36.9749 13.0251C36.3185 12.3687 35.4283 12 34.5 12H29.5C29.04 11.9983 28.5842 12.0878 28.159 12.2634C27.7339 12.439 27.3477 12.6972 27.023 13.023C26.3691 13.6817 26.0015 14.5718 26 15.5C26 15.8978 25.842 16.2794 25.5607 16.5607C25.2794 16.842 24.8978 17 24.5 17H23V14ZM23 26V19H24.5C25.4283 19 26.3185 18.6313 26.9749 17.9749C27.6313 17.3185 28 16.4283 28 15.5C27.9992 15.3028 28.0375 15.1074 28.1126 14.925C28.1877 14.7427 28.2981 14.577 28.4376 14.4376C28.577 14.2981 28.7427 14.1877 28.925 14.1126C29.1074 14.0375 29.3028 13.9992 29.5 14H34.5C34.8978 14 35.2794 14.158 35.5607 14.4393C35.842 14.7206 36 15.1022 36 15.5C35.9991 15.9599 36.089 16.4154 36.2645 16.8405C36.4401 17.2655 36.6979 17.6517 37.0231 17.9769C37.3483 18.3021 37.7345 18.5599 38.1595 18.7355C38.5846 18.911 39.0401 19.0009 39.5 19H41V26C40.9996 27.3374 40.7011 28.658 40.1263 29.8656C39.5514 31.0732 38.7146 32.1375 37.6768 32.9811C36.639 33.8247 35.4261 34.4264 34.1266 34.7424C32.827 35.0584 31.4733 35.0808 30.164 34.808C29.5576 34.6827 28.9663 34.4933 28.4 34.243C26.7953 33.5437 25.4295 32.3913 24.4703 30.9271C23.5111 29.4628 23.0001 27.7505 23 26V26ZM9.976 47.978C11.5526 46.396 13.4268 45.1416 15.4905 44.2872C17.5541 43.4329 19.7665 42.9954 22 43H27C27.0072 43.9853 27.3053 44.9466 27.857 45.763L25.182 59H5.029C5.26537 54.8424 7.02676 50.918 9.976 47.978V47.978ZM27.222 59L29.572 47.37C29.607 47.39 29.646 47.403 29.682 47.422C29.81 47.489 29.941 47.551 30.075 47.607C30.115 47.623 30.153 47.64 30.193 47.655C31.3525 48.1144 32.6435 48.1144 33.803 47.655C33.846 47.639 33.888 47.621 33.93 47.604C34.061 47.549 34.188 47.489 34.314 47.423C34.351 47.403 34.391 47.39 34.428 47.369L36.777 59H27.222ZM38.822 59L36.144 45.763C36.6953 44.9465 36.9931 43.9852 37 43H42C46.334 43.0054 50.5028 44.6637 53.6563 47.6368C56.8098 50.6099 58.7106 54.6738 58.971 59H38.822Z" fill="#231F20"/>
<path d="M21 50H13C12.7348 50 12.4804 50.1054 12.2929 50.2929C12.1054 50.4804 12 50.7348 12 51C12 51.2652 12.1054 51.5196 12.2929 51.7071C12.4804 51.8946 12.7348 52 13 52H21C21.2652 52 21.5196 51.8946 21.7071 51.7071C21.8946 51.5196 22 51.2652 22 51C22 50.7348 21.8946 50.4804 21.7071 50.2929C21.5196 50.1054 21.2652 50 21 50Z" fill="#231F20"/>
</svg>
