<?xml version="1.0" encoding="UTF-8" standalone="no"?> <svg width="64" height="64" viewBox="0 0 64 64" fill="none" xmlns="http://www.w3.org/2000/svg">
<path d="M43.47 18.23H20.53C20.2648 18.23 20.0105 18.1246 19.8229 17.9371C19.6354 17.7495 19.53 17.4952 19.53 17.23V10.34C19.53 9.04304 20.0452 7.79925 20.9623 6.8822C21.8793 5.96515 23.1231 5.44995 24.42 5.44995H39.58C40.8769 5.44995 42.1207 5.96515 43.0378 6.8822C43.9548 7.79925 44.47 9.04304 44.47 10.34V17.23C44.47 17.4952 44.3647 17.7495 44.1771 17.9371C43.9896 18.1246 43.7352 18.23 43.47 18.23ZM21.53 16.23H42.47V10.34C42.4674 9.57429 42.1621 8.84073 41.6207 8.29932C41.0792 7.75792 40.3457 7.45259 39.58 7.44995H24.42C23.6544 7.45259 22.9208 7.75792 22.3794 8.29932C21.838 8.84073 21.5327 9.57429 21.53 10.34V16.23Z" fill="url(#paint0_linear)"/>
<path d="M55.42 16.23H8.58C5.49825 16.23 3 18.7282 3 21.81V52.97C3 56.0517 5.49825 58.55 8.58 58.55H55.42C58.5017 58.55 61 56.0517 61 52.97V21.81C61 18.7282 58.5017 16.23 55.42 16.23Z" fill="url(#paint1_linear)"/>
<path d="M32 43.22C30.1148 43.1958 28.2966 43.9183 26.9421 45.2297C25.5876 46.5411 24.8068 48.335 24.77 50.22C24.61 52.83 29.3 53.82 32 53.72C35.34 53.72 39.24 52.8 39.24 50.22C39.2032 48.3332 38.4209 46.5378 37.0643 45.2261C35.7076 43.9144 33.8869 43.1932 32 43.22V43.22Z" fill="url(#paint2_linear)"/>
<path d="M34.2 41.26C35.83 41.94 37.09 40.54 37.57 38.82C38.25 36.73 37.25 33.64 34.83 34.57C32.71 35.46 32 40.18 34.2 41.26Z" fill="url(#paint3_linear)"/>
<path d="M42.2699 39.9999C39.9899 36.6799 35.7999 41.4999 37.4199 44.1099C39.7199 47.4299 43.8899 42.5999 42.2699 39.9999Z" fill="url(#paint4_linear)"/>
<path d="M28.24 41.27C32.05 42.51 31.86 35.58 29.24 34.56C25.38 33.32 25.57 40.24 28.24 41.27Z" fill="url(#paint5_linear)"/>
<path d="M26.58 44.0999C27.77 42.2199 25.74 38.5499 23.3 38.9099C20.86 39.2699 20.93 42.6099 22.61 44.2399C23.75 45.4599 25.73 45.6199 26.58 44.0999Z" fill="url(#paint6_linear)"/>
<path d="M43.1 28.55H20.9C20.6348 28.55 20.3805 28.6554 20.1929 28.8429C20.0054 29.0305 19.9 29.2848 19.9 29.55C19.9 29.8153 20.0054 30.0696 20.1929 30.2572C20.3805 30.4447 20.6348 30.55 20.9 30.55H43.1C43.3652 30.55 43.6196 30.4447 43.8071 30.2572C43.9947 30.0696 44.1 29.8153 44.1 29.55C44.1 29.2848 43.9947 29.0305 43.8071 28.8429C43.6196 28.6554 43.3652 28.55 43.1 28.55Z" fill="url(#paint7_linear)"/>
<path d="M12 28.55H3V30.55H12C12.2652 30.55 12.5196 30.4447 12.7071 30.2572C12.8946 30.0696 13 29.8153 13 29.55C13 29.2848 12.8946 29.0305 12.7071 28.8429C12.5196 28.6554 12.2652 28.55 12 28.55Z" fill="url(#paint8_linear)"/>
<path d="M52 28.55C51.7348 28.55 51.4804 28.6554 51.2929 28.8429C51.1054 29.0305 51 29.2848 51 29.55C51 29.8153 51.1054 30.0696 51.2929 30.2572C51.4804 30.4447 51.7348 30.55 52 30.55H61V28.55H52Z" fill="url(#paint9_linear)"/>
<path d="M20.9 25.3499H12C11.4477 25.3499 11 25.7976 11 26.3499V32.7399C11 33.2921 11.4477 33.7399 12 33.7399H20.9C21.4523 33.7399 21.9 33.2921 21.9 32.7399V26.3499C21.9 25.7976 21.4523 25.3499 20.9 25.3499Z" fill="url(#paint10_linear)"/>
<path d="M52 25.3499H43.1C42.5477 25.3499 42.1 25.7976 42.1 26.3499V32.7399C42.1 33.2921 42.5477 33.7399 43.1 33.7399H52C52.5523 33.7399 53 33.2921 53 32.7399V26.3499C53 25.7976 52.5523 25.3499 52 25.3499Z" fill="url(#paint11_linear)"/>
<defs>
<linearGradient id="paint0_linear" x1="19.53" y1="11.84" x2="44.47" y2="11.84" gradientUnits="userSpaceOnUse">
<stop stop-color="#141C2C"/>
<stop offset="0.84" stop-color="#090D14"/>
<stop offset="1" stop-color="#070A0F"/>
</linearGradient>
<linearGradient id="paint1_linear" x1="3" y1="37.39" x2="61" y2="37.39" gradientUnits="userSpaceOnUse">
<stop stop-color="#00ADEE"/>
<stop offset="0.4" stop-color="#0070B4"/>
<stop offset="1" stop-color="#2E3191"/>
</linearGradient>
<linearGradient id="paint2_linear" x1="24.77" y1="48.49" x2="39.25" y2="48.49" gradientUnits="userSpaceOnUse">
<stop stop-color="#FDFBF7"/>
<stop offset="0.35" stop-color="#F5F0DF"/>
<stop offset="1" stop-color="#E3D7A9"/>
</linearGradient>
<linearGradient id="paint3_linear" x1="194.493" y1="301.114" x2="218.807" y2="301.114" gradientUnits="userSpaceOnUse">
<stop stop-color="#FDFBF7"/>
<stop offset="0.35" stop-color="#F5F0DF"/>
<stop offset="1" stop-color="#E3D7A9"/>
</linearGradient>
<linearGradient id="paint4_linear" x1="243.771" y1="306.415" x2="274.895" y2="306.415" gradientUnits="userSpaceOnUse">
<stop stop-color="#FDFBF7"/>
<stop offset="0.35" stop-color="#F5F0DF"/>
<stop offset="1" stop-color="#E3D7A9"/>
</linearGradient>
<linearGradient id="paint5_linear" x1="154.504" y1="300.016" x2="178.265" y2="300.016" gradientUnits="userSpaceOnUse">
<stop stop-color="#FDFBF7"/>
<stop offset="0.35" stop-color="#F5F0DF"/>
<stop offset="1" stop-color="#E3D7A9"/>
</linearGradient>
<linearGradient id="paint6_linear" x1="139.665" y1="304.249" x2="170.295" y2="304.249" gradientUnits="userSpaceOnUse">
<stop stop-color="#FDFBF7"/>
<stop offset="0.35" stop-color="#F5F0DF"/>
<stop offset="1" stop-color="#E3D7A9"/>
</linearGradient>
<linearGradient id="paint7_linear" x1="501.964" y1="87.65" x2="1086.64" y2="87.65" gradientUnits="userSpaceOnUse">
<stop stop-color="#141C2C"/>
<stop offset="0.84" stop-color="#090D14"/>
<stop offset="1" stop-color="#070A0F"/>
</linearGradient>
<linearGradient id="paint8_linear" x1="33" y1="87.65" x2="132.8" y2="87.65" gradientUnits="userSpaceOnUse">
<stop stop-color="#141C2C"/>
<stop offset="0.84" stop-color="#090D14"/>
<stop offset="1" stop-color="#070A0F"/>
</linearGradient>
<linearGradient id="paint9_linear" x1="561.2" y1="87.65" x2="661" y2="87.65" gradientUnits="userSpaceOnUse">
<stop stop-color="#141C2C"/>
<stop offset="0.84" stop-color="#090D14"/>
<stop offset="1" stop-color="#070A0F"/>
</linearGradient>
<linearGradient id="paint10_linear" x1="11" y1="29.5499" x2="21.9" y2="29.5499" gradientUnits="userSpaceOnUse">
<stop stop-color="#C6C6C6"/>
<stop offset="0.42" stop-color="#AEAEAE"/>
<stop offset="1" stop-color="#878787"/>
</linearGradient>
<linearGradient id="paint11_linear" x1="500.99" y1="273.274" x2="619.8" y2="273.274" gradientUnits="userSpaceOnUse">
<stop stop-color="#C6C6C6"/>
<stop offset="0.42" stop-color="#AEAEAE"/>
<stop offset="1" stop-color="#878787"/>
</linearGradient>
</defs>
</svg>
