<?xml version="1.0" encoding="UTF-8" standalone="no"?> <svg width="64" height="64" viewBox="0 0 64 64" fill="none" xmlns="http://www.w3.org/2000/svg">
<path d="M48.7001 13.61H15.3C15.0348 13.61 14.7805 13.7153 14.5929 13.9029C14.4054 14.0904 14.3 14.3448 14.3 14.61V60C14.3 60.2652 14.4054 60.5196 14.5929 60.7071C14.7805 60.8946 15.0348 61 15.3 61H48.7001C48.9653 61 49.2196 60.8946 49.4072 60.7071C49.5947 60.5196 49.7001 60.2652 49.7001 60V14.61C49.7001 14.3448 49.5947 14.0904 49.4072 13.9029C49.2196 13.7153 48.9653 13.61 48.7001 13.61Z" fill="#CCCCCC"/>
<path d="M39.73 1.96997H24.27C21.5583 1.96997 19.36 4.16825 19.36 6.87997V22.33C19.36 25.0417 21.5583 27.24 24.27 27.24H39.73C42.4417 27.24 44.64 25.0417 44.64 22.33V6.87997C44.64 4.16825 42.4417 1.96997 39.73 1.96997Z" fill="#ED1C24"/>
<path d="M34.9 14.5699C34.126 13.8102 33.0847 13.3845 32 13.3845C30.9154 13.3845 29.8741 13.8102 29.1 14.5699L26.19 17.3699C25.7181 17.8226 25.3926 18.4064 25.2558 19.0459C25.119 19.6854 25.1771 20.3512 25.4226 20.9574C25.6681 21.5636 26.0896 22.0822 26.6329 22.4463C27.1761 22.8104 27.8161 23.0032 28.47 22.9999C29.74 22.9999 30.71 22.3499 32 22.3499C33.29 22.3499 34.36 22.9299 35.57 22.9899C38.4 23.1599 39.9 19.2799 37.81 17.4099L34.9 14.5699Z" fill="#E6E6E6"/>
<path d="M39.57 10.2599C39.006 10.1874 38.434 10.3094 37.9486 10.6057C37.4632 10.9021 37.0933 11.3551 36.9 11.8899C38.04 9.88994 36.9 6.16994 34.6 6.24994C33.9533 6.30826 33.3451 6.58269 32.8734 7.02898C32.4017 7.47528 32.094 8.06742 32 8.70994C31.906 8.06742 31.5984 7.47528 31.1267 7.02898C30.655 6.58269 30.0468 6.30826 29.4 6.24994C27.09 6.16994 25.96 9.84994 27.1 11.8899C26.9052 11.3561 26.535 10.9042 26.05 10.6081C25.565 10.312 24.9939 10.1893 24.43 10.2599C22.03 10.7399 22.26 15.2599 24.3 16.4299C26.91 17.9599 28.45 14.2299 27.13 11.9299C28.37 14.4199 31.42 13.7299 32 11.0299C32.58 13.7299 35.63 14.4199 36.87 11.9299C35.55 14.2399 37.09 17.9299 39.71 16.4299C41.74 15.2699 42 10.7399 39.57 10.2599Z" fill="#E6E6E6"/>
<path d="M22.2 47.6799H24V60.9999H26V47.6799H37.9399V60.9999H39.9399V47.6799H41.7999C42.0652 47.6799 42.3195 47.5746 42.5071 47.387C42.6946 47.1995 42.7999 46.9451 42.7999 46.6799C42.7999 46.4147 42.6946 46.1604 42.5071 45.9728C42.3195 45.7853 42.0652 45.6799 41.7999 45.6799H22.2C21.9347 45.6799 21.6804 45.7853 21.4928 45.9728C21.3053 46.1604 21.2 46.4147 21.2 46.6799C21.2 46.9451 21.3053 47.1995 21.4928 47.387C21.6804 47.5746 21.9347 47.6799 22.2 47.6799Z" fill="#4D4D4D"/>
<path d="M60 22.2999H48.7C48.1477 22.2999 47.7 22.7476 47.7 23.2999V59.9999C47.7 60.5522 48.1477 60.9999 48.7 60.9999H60C60.5522 60.9999 61 60.5522 61 59.9999V23.2999C61 22.7476 60.5522 22.2999 60 22.2999Z" fill="#B3B3B3"/>
<path d="M15.3 22.2999H4C3.44772 22.2999 3 22.7476 3 23.2999V59.9999C3 60.5522 3.44772 60.9999 4 60.9999H15.3C15.8523 60.9999 16.3 60.5522 16.3 59.9999V23.2999C16.3 22.7476 15.8523 22.2999 15.3 22.2999Z" fill="#B3B3B3"/>
<path d="M56.31 26.37H52.39C51.8377 26.37 51.39 26.8177 51.39 27.37V30.87C51.39 31.4223 51.8377 31.87 52.39 31.87H56.31C56.8623 31.87 57.31 31.4223 57.31 30.87V27.37C57.31 26.8177 56.8623 26.37 56.31 26.37Z" fill="#29ABE2"/>
<path d="M56.31 33.71H52.39C51.8377 33.71 51.39 34.1577 51.39 34.71V38.21C51.39 38.7622 51.8377 39.21 52.39 39.21H56.31C56.8623 39.21 57.31 38.7622 57.31 38.21V34.71C57.31 34.1577 56.8623 33.71 56.31 33.71Z" fill="#29ABE2"/>
<path d="M56.31 41.0499H52.39C51.8377 41.0499 51.39 41.4976 51.39 42.0499V45.5499C51.39 46.1022 51.8377 46.5499 52.39 46.5499H56.31C56.8623 46.5499 57.31 46.1022 57.31 45.5499V42.0499C57.31 41.4976 56.8623 41.0499 56.31 41.0499Z" fill="#29ABE2"/>
<path d="M56.31 48.4H52.39C51.8377 48.4 51.39 48.8477 51.39 49.4V52.9C51.39 53.4523 51.8377 53.9 52.39 53.9H56.31C56.8623 53.9 57.31 53.4523 57.31 52.9V49.4C57.31 48.8477 56.8623 48.4 56.31 48.4Z" fill="#29ABE2"/>
<path d="M11.6099 26.37H7.68994C7.13766 26.37 6.68994 26.8177 6.68994 27.37V30.87C6.68994 31.4223 7.13766 31.87 7.68994 31.87H11.6099C12.1622 31.87 12.6099 31.4223 12.6099 30.87V27.37C12.6099 26.8177 12.1622 26.37 11.6099 26.37Z" fill="#29ABE2"/>
<path d="M11.6099 33.71H7.68994C7.13766 33.71 6.68994 34.1577 6.68994 34.71V38.21C6.68994 38.7622 7.13766 39.21 7.68994 39.21H11.6099C12.1622 39.21 12.6099 38.7622 12.6099 38.21V34.71C12.6099 34.1577 12.1622 33.71 11.6099 33.71Z" fill="#29ABE2"/>
<path d="M11.6099 41.0499H7.68994C7.13766 41.0499 6.68994 41.4976 6.68994 42.0499V45.5499C6.68994 46.1022 7.13766 46.5499 7.68994 46.5499H11.6099C12.1622 46.5499 12.6099 46.1022 12.6099 45.5499V42.0499C12.6099 41.4976 12.1622 41.0499 11.6099 41.0499Z" fill="#29ABE2"/>
<path d="M11.6099 48.4H7.68994C7.13766 48.4 6.68994 48.8477 6.68994 49.4V52.9C6.68994 53.4523 7.13766 53.9 7.68994 53.9H11.6099C12.1622 53.9 12.6099 53.4523 12.6099 52.9V49.4C12.6099 48.8477 12.1622 48.4 11.6099 48.4Z" fill="#29ABE2"/>
</svg>
