<?xml version="1.0" encoding="UTF-8" standalone="no"?> <svg width="64" height="64" viewBox="0 0 64 64" fill="none" xmlns="http://www.w3.org/2000/svg">
<path d="M57 10H7V20H57V10Z" fill="#79BD9A"/>
<path d="M15 7C15 5.89543 14.1046 5 13 5C11.8954 5 11 5.89543 11 7V13C11 14.1046 11.8954 15 13 15C14.1046 15 15 14.1046 15 13V7Z" fill="white"/>
<path d="M23 7C23 5.89543 22.1046 5 21 5C19.8954 5 19 5.89543 19 7V13C19 14.1046 19.8954 15 21 15C22.1046 15 23 14.1046 23 13V7Z" fill="white"/>
<path d="M45 7C45 5.89543 44.1046 5 43 5C41.8954 5 41 5.89543 41 7V13C41 14.1046 41.8954 15 43 15C44.1046 15 45 14.1046 45 13V7Z" fill="white"/>
<path d="M53 7C53 5.89543 52.1046 5 51 5C49.8954 5 49 5.89543 49 7V13C49 14.1046 49.8954 15 51 15C52.1046 15 53 14.1046 53 13V7Z" fill="white"/>
<path d="M53 13C53 13.5304 52.7893 14.0391 52.4142 14.4142C52.0391 14.7893 51.5304 15 51 15C50.4696 15 49.9609 14.7893 49.5858 14.4142C49.2107 14.0391 49 13.5304 49 13V7C49.0016 6.47005 49.2128 5.96227 49.5875 5.58753C49.9623 5.2128 50.4701 5.00158 51 5V11C51.0016 11.5299 51.2128 12.0377 51.5875 12.4125C51.9623 12.7872 52.4701 12.9984 53 13V13Z" fill="#CFF09E"/>
<path d="M45 13C45 13.5304 44.7893 14.0391 44.4142 14.4142C44.0391 14.7893 43.5304 15 43 15C42.4696 15 41.9609 14.7893 41.5858 14.4142C41.2107 14.0391 41 13.5304 41 13V7C41.0016 6.47005 41.2128 5.96227 41.5875 5.58753C41.9623 5.2128 42.4701 5.00158 43 5V11C43.0016 11.5299 43.2128 12.0377 43.5875 12.4125C43.9623 12.7872 44.4701 12.9984 45 13Z" fill="#CFF09E"/>
<path d="M23 13C23 13.5304 22.7893 14.0391 22.4142 14.4142C22.0391 14.7893 21.5304 15 21 15C20.4696 15 19.9609 14.7893 19.5858 14.4142C19.2107 14.0391 19 13.5304 19 13V7C19.0016 6.47005 19.2128 5.96227 19.5875 5.58753C19.9623 5.2128 20.4701 5.00158 21 5V11C21.0016 11.5299 21.2128 12.0377 21.5875 12.4125C21.9623 12.7872 22.4701 12.9984 23 13V13Z" fill="#CFF09E"/>
<path d="M15 13C15 13.5304 14.7893 14.0391 14.4142 14.4142C14.0391 14.7893 13.5304 15 13 15C12.4696 15 11.9609 14.7893 11.5858 14.4142C11.2107 14.0391 11 13.5304 11 13V7C11.0016 6.47005 11.2128 5.96227 11.5875 5.58753C11.9623 5.2128 12.4701 5.00158 13 5V11C13.0016 11.5299 13.2128 12.0377 13.5875 12.4125C13.9623 12.7872 14.4701 12.9984 15 13V13Z" fill="#CFF09E"/>
<path d="M57 20H7V56H57V20Z" fill="white"/>
<path d="M57 49V56H7V20H27V35C26.9986 36.9981 27.4265 38.9732 28.2546 40.7916C29.0827 42.61 30.2918 44.2294 31.8 45.54C32.816 42.7513 34.7566 40.3948 37.2987 38.8629C39.8408 37.3309 42.831 36.716 45.7713 37.1205C48.7116 37.525 51.4247 38.9246 53.4586 41.086C55.4926 43.2475 56.7248 46.0405 56.95 49H57Z" fill="#CFF09E"/>
<path d="M27 31C28.6569 31 30 29.6569 30 28C30 26.3431 28.6569 25 27 25C25.3431 25 24 26.3431 24 28C24 29.6569 25.3431 31 27 31Z" fill="#A8DBA8"/>
<path d="M38 31C39.6569 31 41 29.6569 41 28C41 26.3431 39.6569 25 38 25C36.3431 25 35 26.3431 35 28C35 29.6569 36.3431 31 38 31Z" fill="#A8DBA8"/>
<path d="M49 31C50.6569 31 52 29.6569 52 28C52 26.3431 50.6569 25 49 25C47.3431 25 46 26.3431 46 28C46 29.6569 47.3431 31 49 31Z" fill="#A8DBA8"/>
<path d="M27 41C28.6569 41 30 39.6569 30 38C30 36.3431 28.6569 35 27 35C25.3431 35 24 36.3431 24 38C24 39.6569 25.3431 41 27 41Z" fill="#A8DBA8"/>
<path d="M38 41C39.6569 41 41 39.6569 41 38C41 36.3431 39.6569 35 38 35C36.3431 35 35 36.3431 35 38C35 39.6569 36.3431 41 38 41Z" fill="#A8DBA8"/>
<path d="M16 51C17.6569 51 19 49.6569 19 48C19 46.3431 17.6569 45 16 45C14.3431 45 13 46.3431 13 48C13 49.6569 14.3431 51 16 51Z" fill="#A8DBA8"/>
<path d="M27 51C28.6569 51 30 49.6569 30 48C30 46.3431 28.6569 45 27 45C25.3431 45 24 46.3431 24 48C24 49.6569 25.3431 51 27 51Z" fill="#A8DBA8"/>
<path d="M48 61C55.1797 61 61 55.1797 61 48C61 40.8203 55.1797 35 48 35C40.8203 35 35 40.8203 35 48C35 55.1797 40.8203 61 48 61Z" fill="#79BD9A"/>
<path d="M18 24H5C4.46957 24 3.96086 24.2107 3.58579 24.5858C3.21071 24.9609 3 25.4696 3 26V39C3 39.5304 3.21071 40.0391 3.58579 40.4142C3.96086 40.7893 4.46957 41 5 41H11L17 45V41H18C18.5304 41 19.0391 40.7893 19.4142 40.4142C19.7893 40.0391 20 39.5304 20 39V26C20 25.4696 19.7893 24.9609 19.4142 24.5858C19.0391 24.2107 18.5304 24 18 24Z" fill="#79BD9A"/>
<path d="M27 24C26.2089 24 25.4355 24.2346 24.7777 24.6741C24.1199 25.1136 23.6072 25.7384 23.3045 26.4693C23.0017 27.2002 22.9225 28.0044 23.0769 28.7804C23.2312 29.5563 23.6122 30.269 24.1716 30.8284C24.731 31.3878 25.4437 31.7688 26.2196 31.9231C26.9956 32.0775 27.7998 31.9983 28.5307 31.6955C29.2616 31.3928 29.8864 30.8801 30.3259 30.2223C30.7654 29.5645 31 28.7911 31 28C31 26.9391 30.5786 25.9217 29.8284 25.1716C29.0783 24.4214 28.0609 24 27 24ZM27 30C26.6044 30 26.2178 29.8827 25.8889 29.6629C25.56 29.4432 25.3036 29.1308 25.1522 28.7654C25.0009 28.3999 24.9613 27.9978 25.0384 27.6098C25.1156 27.2219 25.3061 26.8655 25.5858 26.5858C25.8655 26.3061 26.2219 26.1156 26.6098 26.0384C26.9978 25.9613 27.3999 26.0009 27.7654 26.1522C28.1308 26.3036 28.4432 26.56 28.6629 26.8889C28.8827 27.2178 29 27.6044 29 28C29 28.5304 28.7893 29.0391 28.4142 29.4142C28.0391 29.7893 27.5304 30 27 30Z" fill="#3B8686"/>
<path d="M38 32C38.7911 32 39.5645 31.7654 40.2223 31.3259C40.8801 30.8864 41.3928 30.2616 41.6955 29.5307C41.9983 28.7998 42.0775 27.9956 41.9231 27.2196C41.7688 26.4437 41.3878 25.731 40.8284 25.1716C40.269 24.6122 39.5563 24.2312 38.7804 24.0769C38.0044 23.9225 37.2002 24.0017 36.4693 24.3045C35.7384 24.6072 35.1136 25.1199 34.6741 25.7777C34.2346 26.4355 34 27.2089 34 28C34 29.0609 34.4214 30.0783 35.1716 30.8284C35.9217 31.5786 36.9391 32 38 32ZM38 26C38.3956 26 38.7822 26.1173 39.1111 26.3371C39.44 26.5568 39.6964 26.8692 39.8478 27.2346C39.9991 27.6001 40.0387 28.0022 39.9616 28.3902C39.8844 28.7781 39.6939 29.1345 39.4142 29.4142C39.1345 29.6939 38.7781 29.8844 38.3902 29.9616C38.0022 30.0387 37.6001 29.9991 37.2346 29.8478C36.8692 29.6964 36.5568 29.44 36.3371 29.1111C36.1173 28.7822 36 28.3956 36 28C36 27.4696 36.2107 26.9609 36.5858 26.5858C36.9609 26.2107 37.4696 26 38 26Z" fill="#3B8686"/>
<path d="M49 32C49.7911 32 50.5645 31.7654 51.2223 31.3259C51.8801 30.8864 52.3928 30.2616 52.6955 29.5307C52.9983 28.7998 53.0775 27.9956 52.9231 27.2196C52.7688 26.4437 52.3878 25.731 51.8284 25.1716C51.269 24.6122 50.5563 24.2312 49.7804 24.0769C49.0044 23.9225 48.2002 24.0017 47.4693 24.3045C46.7384 24.6072 46.1136 25.1199 45.6741 25.7777C45.2346 26.4355 45 27.2089 45 28C45 29.0609 45.4214 30.0783 46.1716 30.8284C46.9217 31.5786 47.9391 32 49 32ZM49 26C49.3956 26 49.7822 26.1173 50.1111 26.3371C50.44 26.5568 50.6964 26.8692 50.8478 27.2346C50.9991 27.6001 51.0387 28.0022 50.9616 28.3902C50.8844 28.7781 50.6939 29.1345 50.4142 29.4142C50.1345 29.6939 49.7781 29.8844 49.3902 29.9616C49.0022 30.0387 48.6001 29.9991 48.2346 29.8478C47.8692 29.6964 47.5568 29.44 47.3371 29.1111C47.1173 28.7822 47 28.3956 47 28C47 27.4696 47.2107 26.9609 47.5858 26.5858C47.9609 26.2107 48.4696 26 49 26Z" fill="#3B8686"/>
<path d="M27 34C26.2089 34 25.4355 34.2346 24.7777 34.6741C24.1199 35.1136 23.6072 35.7384 23.3045 36.4693C23.0017 37.2002 22.9225 38.0044 23.0769 38.7804C23.2312 39.5563 23.6122 40.269 24.1716 40.8284C24.731 41.3878 25.4437 41.7688 26.2196 41.9231C26.9956 42.0775 27.7998 41.9983 28.5307 41.6955C29.2616 41.3928 29.8864 40.8801 30.3259 40.2223C30.7654 39.5645 31 38.7911 31 38C31 36.9391 30.5786 35.9217 29.8284 35.1716C29.0783 34.4214 28.0609 34 27 34ZM27 40C26.6044 40 26.2178 39.8827 25.8889 39.6629C25.56 39.4432 25.3036 39.1308 25.1522 38.7654C25.0009 38.3999 24.9613 37.9978 25.0384 37.6098C25.1156 37.2219 25.3061 36.8655 25.5858 36.5858C25.8655 36.3061 26.2219 36.1156 26.6098 36.0384C26.9978 35.9613 27.3999 36.0009 27.7654 36.1522C28.1308 36.3036 28.4432 36.56 28.6629 36.8889C28.8827 37.2178 29 37.6044 29 38C29 38.5304 28.7893 39.0391 28.4142 39.4142C28.0391 39.7893 27.5304 40 27 40Z" fill="#3B8686"/>
<path d="M27 44C26.2089 44 25.4355 44.2346 24.7777 44.6741C24.1199 45.1136 23.6072 45.7384 23.3045 46.4693C23.0017 47.2002 22.9225 48.0044 23.0769 48.7804C23.2312 49.5563 23.6122 50.269 24.1716 50.8284C24.731 51.3878 25.4437 51.7688 26.2196 51.9231C26.9956 52.0775 27.7998 51.9983 28.5307 51.6955C29.2616 51.3928 29.8864 50.8801 30.3259 50.2223C30.7654 49.5645 31 48.7911 31 48C31 46.9391 30.5786 45.9217 29.8284 45.1716C29.0783 44.4214 28.0609 44 27 44ZM27 50C26.6044 50 26.2178 49.8827 25.8889 49.6629C25.56 49.4432 25.3036 49.1308 25.1522 48.7654C25.0009 48.3999 24.9613 47.9978 25.0384 47.6098C25.1156 47.2219 25.3061 46.8655 25.5858 46.5858C25.8655 46.3061 26.2219 46.1156 26.6098 46.0384C26.9978 45.9613 27.3999 46.0009 27.7654 46.1522C28.1308 46.3036 28.4432 46.56 28.6629 46.8889C28.8827 47.2178 29 47.6044 29 48C29 48.5304 28.7893 49.0391 28.4142 49.4142C28.0391 49.7893 27.5304 50 27 50Z" fill="#3B8686"/>
<path d="M58 38.221V10C58 9.73478 57.8946 9.48043 57.7071 9.29289C57.5196 9.10536 57.2652 9 57 9H54V7C54 6.20435 53.6839 5.44129 53.1213 4.87868C52.5587 4.31607 51.7956 4 51 4C50.2044 4 49.4413 4.31607 48.8787 4.87868C48.3161 5.44129 48 6.20435 48 7V9H46V7C46 6.20435 45.6839 5.44129 45.1213 4.87868C44.5587 4.31607 43.7956 4 43 4C42.2044 4 41.4413 4.31607 40.8787 4.87868C40.3161 5.44129 40 6.20435 40 7V9H24V7C24 6.20435 23.6839 5.44129 23.1213 4.87868C22.5587 4.31607 21.7956 4 21 4C20.2044 4 19.4413 4.31607 18.8787 4.87868C18.3161 5.44129 18 6.20435 18 7V9H16V7C16 6.20435 15.6839 5.44129 15.1213 4.87868C14.5587 4.31607 13.7956 4 13 4C12.2044 4 11.4413 4.31607 10.8787 4.87868C10.3161 5.44129 10 6.20435 10 7V9H7C6.73478 9 6.48043 9.10536 6.29289 9.29289C6.10536 9.48043 6 9.73478 6 10V23H5C4.20435 23 3.44129 23.3161 2.87868 23.8787C2.31607 24.4413 2 25.2044 2 26V39C2 39.7956 2.31607 40.5587 2.87868 41.1213C3.44129 41.6839 4.20435 42 5 42H6V56C6 56.2652 6.10536 56.5196 6.29289 56.7071C6.48043 56.8946 6.73478 57 7 57H37.292C38.5015 58.4428 39.9899 59.6266 41.6679 60.4804C43.3459 61.3343 45.179 61.8406 47.0573 61.969C48.9357 62.0974 50.8207 61.8454 52.5993 61.2279C54.3779 60.6104 56.0135 59.6402 57.4082 58.3754C58.8028 57.1107 59.9278 55.5774 60.7157 53.8675C61.5037 52.1575 61.9383 50.3061 61.9935 48.4242C62.0488 46.5423 61.7236 44.6685 61.0374 42.9153C60.3511 41.1621 59.3181 39.5654 58 38.221V38.221ZM50 7C50 6.73478 50.1054 6.48043 50.2929 6.29289C50.4804 6.10536 50.7348 6 51 6C51.2652 6 51.5196 6.10536 51.7071 6.29289C51.8946 6.48043 52 6.73478 52 7V13C52 13.2652 51.8946 13.5196 51.7071 13.7071C51.5196 13.8946 51.2652 14 51 14C50.7348 14 50.4804 13.8946 50.2929 13.7071C50.1054 13.5196 50 13.2652 50 13V7ZM42 7C42 6.73478 42.1054 6.48043 42.2929 6.29289C42.4804 6.10536 42.7348 6 43 6C43.2652 6 43.5196 6.10536 43.7071 6.29289C43.8946 6.48043 44 6.73478 44 7V13C44 13.2652 43.8946 13.5196 43.7071 13.7071C43.5196 13.8946 43.2652 14 43 14C42.7348 14 42.4804 13.8946 42.2929 13.7071C42.1054 13.5196 42 13.2652 42 13V7ZM20 7C20 6.73478 20.1054 6.48043 20.2929 6.29289C20.4804 6.10536 20.7348 6 21 6C21.2652 6 21.5196 6.10536 21.7071 6.29289C21.8946 6.48043 22 6.73478 22 7V13C22 13.2652 21.8946 13.5196 21.7071 13.7071C21.5196 13.8946 21.2652 14 21 14C20.7348 14 20.4804 13.8946 20.2929 13.7071C20.1054 13.5196 20 13.2652 20 13V7ZM12 7C12 6.73478 12.1054 6.48043 12.2929 6.29289C12.4804 6.10536 12.7348 6 13 6C13.2652 6 13.5196 6.10536 13.7071 6.29289C13.8946 6.48043 14 6.73478 14 7V13C14 13.2652 13.8946 13.5196 13.7071 13.7071C13.5196 13.8946 13.2652 14 13 14C12.7348 14 12.4804 13.8946 12.2929 13.7071C12.1054 13.5196 12 13.2652 12 13V7ZM10 11V13C10 13.7956 10.3161 14.5587 10.8787 15.1213C11.4413 15.6839 12.2044 16 13 16C13.7956 16 14.5587 15.6839 15.1213 15.1213C15.6839 14.5587 16 13.7956 16 13V11H18V13C18 13.7956 18.3161 14.5587 18.8787 15.1213C19.4413 15.6839 20.2044 16 21 16C21.7956 16 22.5587 15.6839 23.1213 15.1213C23.6839 14.5587 24 13.7956 24 13V11H40V13C40 13.7956 40.3161 14.5587 40.8787 15.1213C41.4413 15.6839 42.2044 16 43 16C43.7956 16 44.5587 15.6839 45.1213 15.1213C45.6839 14.5587 46 13.7956 46 13V11H48V13C48 13.7956 48.3161 14.5587 48.8787 15.1213C49.4413 15.6839 50.2044 16 51 16C51.7956 16 52.5587 15.6839 53.1213 15.1213C53.6839 14.5587 54 13.7956 54 13V11H56V19H8V11H10ZM4 39V26C4 25.7348 4.10536 25.4804 4.29289 25.2929C4.48043 25.1054 4.73478 25 5 25H18C18.2652 25 18.5196 25.1054 18.7071 25.2929C18.8946 25.4804 19 25.7348 19 26V39C19 39.2652 18.8946 39.5196 18.7071 39.7071C18.5196 39.8946 18.2652 40 18 40H17C16.7348 40 16.4804 40.1054 16.2929 40.2929C16.1054 40.4804 16 40.7348 16 41V43.131L11.555 40.168C11.3905 40.0587 11.1975 40.0003 11 40H5C4.73478 40 4.48043 39.8946 4.29289 39.7071C4.10536 39.5196 4 39.2652 4 39ZM16 46C16.3956 46 16.7822 46.1173 17.1111 46.3371C17.44 46.5568 17.6964 46.8692 17.8478 47.2346C17.9991 47.6001 18.0387 48.0022 17.9616 48.3902C17.8844 48.7781 17.6939 49.1345 17.4142 49.4142C17.1345 49.6939 16.7781 49.8844 16.3902 49.9616C16.0022 50.0387 15.6001 49.9991 15.2346 49.8478C14.8692 49.6964 14.5568 49.44 14.3371 49.1111C14.1173 48.7822 14 48.3956 14 48C14 47.4696 14.2107 46.9609 14.5858 46.5858C14.9609 46.2107 15.4696 46 16 46ZM8 55V42H10.7L14.3 44.4C13.4881 44.7806 12.8274 45.4225 12.4236 46.2231C12.0198 47.0237 11.8962 47.9366 12.0727 48.8157C12.2492 49.6948 12.7155 50.4893 13.397 51.072C14.0785 51.6547 14.9358 51.9919 15.8316 52.0297C16.7275 52.0674 17.6101 51.8036 18.3382 51.2803C19.0663 50.757 19.5978 50.0046 19.8477 49.1435C20.0975 48.2824 20.0513 47.3623 19.7163 46.5306C19.3813 45.6989 18.777 45.0036 18 44.556V42C18.7956 42 19.5587 41.6839 20.1213 41.1213C20.6839 40.5587 21 39.7956 21 39V26C21 25.2044 20.6839 24.4413 20.1213 23.8787C19.5587 23.3161 18.7956 23 18 23H8V21H56V36.527C53.8661 35.0306 51.3554 34.1625 48.7529 34.0211C46.1505 33.8797 43.5605 34.4707 41.277 35.727C40.9133 35.1934 40.4245 34.7571 39.8532 34.456C39.282 34.155 38.6457 33.9984 38 34C36.9391 34 35.9217 34.4214 35.1716 35.1716C34.4214 35.9217 34 36.9391 34 38C33.9983 38.6456 34.1547 39.2819 34.4556 39.8531C34.7564 40.4243 35.1926 40.9132 35.726 41.277C34.5659 43.384 33.9717 45.7556 34.0011 48.1606C34.0305 50.5657 34.6827 52.9221 35.894 55H8ZM36.825 39.6C36.5701 39.4182 36.3623 39.1781 36.2188 38.8999C36.0753 38.6216 36.0003 38.3131 36 38C36 37.4696 36.2107 36.9609 36.5858 36.5858C36.9609 36.2107 37.4696 36 38 36C38.3132 36.0002 38.6219 36.0753 38.9002 36.2189C39.1785 36.3626 39.4184 36.5708 39.6 36.826C38.5502 37.6168 37.6162 38.5505 36.825 39.6V39.6ZM54.84 57.847L54.366 57.026C54.2325 56.7982 54.0142 56.6325 53.7589 56.565C53.5036 56.4975 53.232 56.5337 53.0033 56.6657C52.7746 56.7978 52.6074 57.0149 52.5382 57.2697C52.4691 57.5246 52.5035 57.7964 52.634 58.026L53.106 58.844C51.8149 59.4561 50.424 59.8304 49 59.949V59C49 58.7348 48.8946 58.4804 48.7071 58.2929C48.5196 58.1054 48.2652 58 48 58C47.7348 58 47.4804 58.1054 47.2929 58.2929C47.1054 58.4804 47 58.7348 47 59V59.949C45.5764 59.832 44.1855 59.4594 42.894 58.849L43.366 58.031C43.4327 57.9172 43.4762 57.7914 43.4941 57.6607C43.512 57.5301 43.5038 57.3972 43.4701 57.2697C43.4364 57.1422 43.3778 57.0226 43.2977 56.9178C43.2176 56.8131 43.1175 56.7252 43.0033 56.6592C42.8891 56.5933 42.763 56.5506 42.6322 56.5336C42.5014 56.5166 42.3686 56.5256 42.2413 56.5602C42.114 56.5947 41.9949 56.6541 41.8906 56.7349C41.7864 56.8157 41.6992 56.9164 41.634 57.031L41.16 57.852C39.988 57.035 38.97 56.017 38.153 54.845L38.974 54.371C39.0886 54.3058 39.1893 54.2186 39.2701 54.1144C39.3509 54.0101 39.4103 53.891 39.4448 53.7637C39.4794 53.6364 39.4884 53.5036 39.4714 53.3728C39.4544 53.242 39.4117 53.1159 39.3458 53.0017C39.2798 52.8875 39.1919 52.7874 39.0872 52.7073C38.9824 52.6272 38.8628 52.5686 38.7353 52.5349C38.6078 52.5012 38.4749 52.493 38.3443 52.5109C38.2136 52.5288 38.0878 52.5723 37.974 52.639L37.156 53.111C36.5434 51.8183 36.1691 50.4256 36.051 49H37C37.2652 49 37.5196 48.8946 37.7071 48.7071C37.8946 48.5196 38 48.2652 38 48C38 47.7348 37.8946 47.4804 37.7071 47.2929C37.5196 47.1054 37.2652 47 37 47H36.051C36.1681 45.5764 36.5408 44.1855 37.151 42.894L37.969 43.366C38.1986 43.4965 38.4704 43.5309 38.7253 43.4618C38.9801 43.3926 39.1972 43.2254 39.3293 42.9967C39.4613 42.768 39.4975 42.4964 39.43 42.2411C39.3625 41.9858 39.1968 41.7675 38.969 41.634L38.148 41.16C38.965 39.988 39.983 38.97 41.155 38.153L41.629 38.974C41.6942 39.0886 41.7814 39.1893 41.8856 39.2701C41.9899 39.3509 42.109 39.4103 42.2363 39.4448C42.3636 39.4794 42.4964 39.4884 42.6272 39.4714C42.758 39.4544 42.8841 39.4117 42.9983 39.3458C43.1125 39.2798 43.2126 39.1919 43.2927 39.0872C43.3728 38.9824 43.4314 38.8628 43.4651 38.7353C43.4988 38.6078 43.507 38.4749 43.4891 38.3443C43.4712 38.2136 43.4277 38.0878 43.361 37.974L42.889 37.156C44.1817 36.5433 45.5743 36.169 47 36.051V37C47 37.2652 47.1054 37.5196 47.2929 37.7071C47.4804 37.8946 47.7348 38 48 38C48.2652 38 48.5196 37.8946 48.7071 37.7071C48.8946 37.5196 49 37.2652 49 37V36.051C50.4236 36.168 51.8145 36.5406 53.106 37.151L52.634 37.969C52.5673 38.0828 52.5238 38.2086 52.5059 38.3393C52.488 38.4699 52.4962 38.6028 52.5299 38.7303C52.5636 38.8578 52.6222 38.9774 52.7023 39.0822C52.7824 39.1869 52.8825 39.2748 52.9967 39.3408C53.1109 39.4067 53.237 39.4494 53.3678 39.4664C53.4986 39.4834 53.6314 39.4744 53.7587 39.4398C53.886 39.4053 54.0051 39.3459 54.1094 39.2651C54.2136 39.1843 54.3008 39.0836 54.366 38.969L54.84 38.148C56.012 38.965 57.03 39.983 57.847 41.155L57.026 41.629C56.9114 41.6942 56.8107 41.7814 56.7299 41.8856C56.6491 41.9899 56.5897 42.109 56.5552 42.2363C56.5206 42.3636 56.5116 42.4964 56.5286 42.6272C56.5456 42.758 56.5883 42.8841 56.6542 42.9983C56.7202 43.1125 56.8081 43.2126 56.9128 43.2927C57.0176 43.3728 57.1372 43.4314 57.2647 43.4651C57.3922 43.4988 57.5251 43.507 57.6557 43.4891C57.7864 43.4712 57.9122 43.4277 58.026 43.361L58.844 42.889C59.4566 44.1817 59.8309 45.5744 59.949 47H59C58.7348 47 58.4804 47.1054 58.2929 47.2929C58.1054 47.4804 58 47.7348 58 48C58 48.2652 58.1054 48.5196 58.2929 48.7071C58.4804 48.8946 58.7348 49 59 49H59.949C59.8319 50.4236 59.4592 51.8145 58.849 53.106L58.031 52.634C57.8014 52.5035 57.5296 52.4691 57.2747 52.5382C57.0199 52.6074 56.8028 52.7746 56.6707 53.0033C56.5387 53.232 56.5025 53.5036 56.57 53.7589C56.6375 54.0142 56.8032 54.2325 57.031 54.366L57.852 54.84C57.0333 56.0122 56.0135 57.0302 54.84 57.847V57.847Z" fill="#3B8686"/>
<path d="M48 40C47.7348 40 47.4804 40.1054 47.2929 40.2929C47.1054 40.4804 47 40.7348 47 41V47.434L42.485 50.143C42.3699 50.2094 42.2692 50.298 42.1888 50.4037C42.1083 50.5094 42.0497 50.6301 42.0164 50.7587C41.9831 50.8873 41.9758 51.0212 41.9949 51.1527C42.0139 51.2842 42.059 51.4105 42.1274 51.5244C42.1958 51.6382 42.2862 51.7373 42.3934 51.8159C42.5005 51.8944 42.6222 51.9508 42.7514 51.9818C42.8806 52.0127 43.0147 52.0176 43.1458 51.9962C43.2769 51.9748 43.4024 51.9275 43.515 51.857L48.515 48.857C48.6629 48.7681 48.7853 48.6425 48.8703 48.4923C48.9553 48.3422 49 48.1726 49 48V41C49 40.7348 48.8946 40.4804 48.7071 40.2929C48.5196 40.1054 48.2652 40 48 40Z" fill="#3B8686"/>
<path d="M11 34C11.2652 34 11.5196 33.8946 11.7071 33.7071C11.8946 33.5196 12 33.2652 12 33V28C12 27.7348 11.8946 27.4804 11.7071 27.2929C11.5196 27.1054 11.2652 27 11 27C10.7348 27 10.4804 27.1054 10.2929 27.2929C10.1054 27.4804 10 27.7348 10 28V33C10 33.2652 10.1054 33.5196 10.2929 33.7071C10.4804 33.8946 10.7348 34 11 34Z" fill="#3B8686"/>
<path d="M11 38C11.5523 38 12 37.5523 12 37C12 36.4477 11.5523 36 11 36C10.4477 36 10 36.4477 10 37C10 37.5523 10.4477 38 11 38Z" fill="#3B8686"/>
</svg>
